<svg width="1440" height="755" viewBox="0 0 1440 755" fill="none" xmlns="http://www.w3.org/2000/svg">
<g filter="url(#filter0_d)">
<path d="M1031.21 649.23C1329.25 755.403 1380.35 585.315 1446.13 503.44V2L0 2L0 582C128.622 537.673 121.258 712.952 291 739C532.138 776.004 733.185 543.057 1031.21 649.23Z" fill="#C4C4C4"/>
<path d="M1031.21 649.23C1329.25 755.403 1380.35 585.315 1446.13 503.44V2L0 2L0 582C128.622 537.673 121.258 712.952 291 739C532.138 776.004 733.185 543.057 1031.21 649.23Z" fill="url(#paint0_linear)"/>
<path d="M1031.21 649.23C1329.25 755.403 1380.35 585.315 1446.13 503.44V2L0 2L0 582C128.622 537.673 121.258 712.952 291 739C532.138 776.004 733.185 543.057 1031.21 649.23Z" stroke="#BBA585" stroke-width="7"/>
</g>
<defs>
<filter id="filter0_d" x="-7.5" y="-1.5" width="1461.13" height="756.023" filterUnits="userSpaceOnUse" color-interpolation-filters="sRGB">
<feFlood flood-opacity="0" result="BackgroundImageFix"/>
<feColorMatrix in="SourceAlpha" type="matrix" values="0 0 0 0 0 0 0 0 0 0 0 0 0 0 0 0 0 0 127 0"/>
<feOffset dy="4"/>
<feGaussianBlur stdDeviation="2"/>
<feColorMatrix type="matrix" values="0 0 0 0 0 0 0 0 0 0 0 0 0 0 0 0 0 0 0.25 0"/>
<feBlend mode="normal" in2="BackgroundImageFix" result="effect1_dropShadow"/>
<feBlend mode="normal" in="SourceGraphic" in2="effect1_dropShadow" result="shape"/>
</filter>
<linearGradient id="paint0_linear" x1="723.065" y1="2" x2="723.065" y2="804" gradientUnits="userSpaceOnUse">
<stop stop-color="white"/>
<stop offset="1" stop-color="white" stop-opacity="0"/>
</linearGradient>
</defs>
</svg>
