<svg width="141" height="42" viewBox="0 0 141 42" fill="none" xmlns="http://www.w3.org/2000/svg">
<path d="M20.9663 25.8756C21.3835 25.5342 21.7486 25.3967 22.0614 25.4631C22.3743 25.5295 22.5308 25.8281 22.5308 26.3591C22.5308 26.5298 22.4929 26.7004 22.417 26.8711C22.3411 27.0418 22.2558 27.1887 22.161 27.312C22.0662 27.4353 21.924 27.5775 21.7343 27.7387C21.5447 27.8999 21.3977 28.0184 21.2934 28.0942C21.1891 28.1701 21.028 28.2791 20.8099 28.4213C20.5918 28.5636 20.4543 28.6536 20.3974 28.6916C19.9613 28.995 19.4967 29.2415 19.0037 29.4311C18.6434 29.6018 17.9844 29.7819 17.0268 29.9716C16.0691 30.1612 15.3154 30.256 14.7654 30.256C14.3103 30.256 13.6751 30.0996 12.8597 29.7867C12.0443 29.4738 11.3474 29.1846 10.769 28.9191C10.1906 28.6536 9.90144 28.5493 9.90144 28.6062C9.90144 28.6062 9.83507 28.6062 9.70233 28.6062C9.56959 28.6062 9.42263 28.5967 9.26144 28.5778C9.10026 28.5588 8.86796 28.6489 8.56455 28.848C8.26115 29.0471 7.94826 29.3553 7.62589 29.7724C7.15181 30.3603 6.72515 31.1615 6.34589 32.176C5.96663 33.1905 5.70115 33.8305 5.54944 34.096C5.35981 34.4753 5.16544 34.9114 4.96633 35.4044C4.76722 35.8975 4.57285 36.3147 4.38322 36.656C4.19359 36.9973 3.93759 37.3576 3.61522 37.7369C3.33078 38.0782 3.10796 38.2868 2.94678 38.3627C2.78559 38.4385 2.51537 38.4006 2.13611 38.2489C1.681 38.0782 1.35389 37.6373 1.15477 36.9262C0.955664 36.2151 0.922479 35.5941 1.05522 35.0631C1.13107 34.7407 1.35389 34.3093 1.72366 33.7689C2.09344 33.2284 2.32574 32.835 2.42055 32.5884C2.53433 32.285 2.65759 31.8299 2.79033 31.2231C2.92307 30.6163 3.03685 30.1896 3.13166 29.9431C3.2644 29.5449 3.51092 28.9807 3.87122 28.2507C4.23152 27.5206 4.47803 26.9754 4.61078 26.6151C4.8004 26.0841 4.93789 25.4299 5.02322 24.6524C5.10855 23.875 5.21285 23.1354 5.33611 22.4338C5.45937 21.7321 5.68218 21.1064 6.00455 20.5564C6.04248 20.4806 6.09937 20.3716 6.17522 20.2293C6.25107 20.0871 6.32218 19.9544 6.38855 19.8311C6.45492 19.7079 6.53552 19.5656 6.63033 19.4044C6.72515 19.2433 6.81522 19.101 6.90055 18.9778C6.98589 18.8545 7.0807 18.717 7.185 18.5653C7.28929 18.4136 7.39359 18.2809 7.49789 18.1671C7.60218 18.0533 7.71122 17.9443 7.825 17.84C7.93878 17.7357 8.05729 17.6456 8.18055 17.5698C8.30381 17.4939 8.42233 17.437 8.53611 17.3991C9.21878 17.2095 9.71181 17.3375 10.0152 17.7831C10.3186 18.2287 10.2997 18.7265 9.95833 19.2764C9.46529 20.0919 9.361 20.4711 9.64544 20.4142C9.92989 20.3194 10.3945 19.9496 11.0392 19.3049C11.7977 18.5464 12.5089 17.968 13.1726 17.5698C13.8363 17.1716 14.6043 16.8966 15.4766 16.7449C16.3109 16.5932 16.7471 16.4889 16.785 16.432C16.8609 16.413 16.9367 16.4604 17.0126 16.5742C17.0884 16.688 17.1643 16.8492 17.2401 17.0578C17.297 17.2664 17.3539 17.5034 17.4108 17.7689C17.4487 18.0533 17.4866 18.3378 17.5246 18.6222C17.5625 18.9067 17.5814 19.1816 17.5814 19.4471C17.5625 22.083 17.1832 23.7991 16.4437 24.5956C15.9886 25.0696 15.6377 25.5247 15.3912 25.9609C15.3154 26.1316 15.2253 26.2453 15.121 26.3022C15.0167 26.3591 14.9314 26.3828 14.865 26.3733C14.7986 26.3639 14.6991 26.3781 14.5663 26.416C14.4336 26.4539 14.3198 26.5487 14.225 26.7004C13.9595 26.9849 13.6751 27.1271 13.3717 27.1271C13.1251 27.1461 12.8075 27.2741 12.4188 27.5111C12.03 27.7481 11.8357 27.9425 11.8357 28.0942C11.8357 28.1511 11.9352 28.227 12.1343 28.3218C12.3334 28.4166 12.5752 28.5067 12.8597 28.592C13.1441 28.6773 13.438 28.7484 13.7414 28.8053C14.0449 28.8622 14.3009 28.8907 14.5094 28.8907C14.8318 28.8907 15.2206 28.8433 15.6757 28.7484C15.8463 28.6726 16.0549 28.592 16.3014 28.5067C16.548 28.4213 16.7755 28.3407 16.9841 28.2649C17.1927 28.189 17.3634 28.1132 17.4961 28.0373C18.9563 27.2788 20.113 26.5582 20.9663 25.8756ZM9.73078 24.6809C9.7687 25.0412 9.92041 25.3873 10.1859 25.7191C10.4514 26.051 10.7074 26.2169 10.9539 26.2169C11.39 26.2169 12.0632 25.8234 12.9734 25.0364C13.8837 24.2495 14.4526 23.5905 14.6801 23.0596C14.9266 22.4527 15.0641 21.789 15.0926 21.0684C15.121 20.3479 15.0214 19.779 14.7939 19.3618C14.5663 18.9636 14.3435 18.7976 14.1254 18.864C13.9074 18.9304 13.4191 19.3333 12.6606 20.0729C11.94 20.7176 11.2715 21.533 10.6552 22.5191C10.0389 23.5052 9.73078 24.2258 9.73078 24.6809ZM38.0261 25.392C38.4243 25.0317 38.7799 24.8847 39.0928 24.9511C39.4057 25.0175 39.5716 25.3161 39.5906 25.8471C39.5906 25.9988 39.5669 26.1458 39.5194 26.288C39.472 26.4302 39.3962 26.563 39.2919 26.6862C39.1876 26.8095 39.0833 26.928 38.979 27.0418C38.8747 27.1556 38.7467 27.2693 38.595 27.3831C38.4433 27.4969 38.3153 27.5917 38.211 27.6676C38.1067 27.7434 37.9692 27.8335 37.7986 27.9378C37.6279 28.0421 37.5141 28.1227 37.4572 28.1796C37.0021 28.483 36.5375 28.7295 36.0634 28.9191C36.0255 28.9381 35.9686 28.9665 35.8928 29.0044C35.8549 29.0993 35.779 29.1751 35.6652 29.232C35.5514 29.2889 35.3808 29.3458 35.1532 29.4027C34.7171 29.6492 34.0723 29.8199 33.219 29.9147C32.3657 30.0095 31.5882 30.0332 30.8866 29.9858C30.1849 29.9384 29.7298 29.8578 29.5212 29.744C29.3506 29.6302 29.1609 29.3932 28.9523 29.0329C28.7437 28.6726 28.5636 28.3123 28.4119 27.952C28.2602 27.5917 28.1654 27.3167 28.1274 27.1271C27.9947 26.5772 27.9473 25.9893 27.9852 25.3636C28.0421 24.7188 28.1464 23.7138 28.2981 22.3484V21.9502C28.2981 21.8554 28.2649 21.7843 28.1986 21.7369C28.1322 21.6895 28.0421 21.6563 27.9283 21.6373C27.8146 21.6373 27.6629 21.6373 27.4732 21.6373C27.2457 21.6373 26.9897 21.5994 26.7052 21.5236C26.4208 21.4477 26.1411 21.3766 25.8661 21.3102C25.5911 21.2439 25.3494 21.2107 25.1408 21.2107C25.1597 21.2107 25.0934 21.5093 24.9417 22.1067C24.79 22.704 24.5956 23.3345 24.3586 23.9982C24.1215 24.6619 23.9082 25.0507 23.7186 25.1644C23.0359 25.5627 22.3153 25.8471 21.5568 26.0178C20.5707 26.2453 21.0163 24.093 22.8937 19.5609C22.9316 19.4471 23.0264 19.2101 23.1781 18.8498C23.3298 18.4895 23.4341 18.2382 23.491 18.096C23.5479 17.9538 23.638 17.7262 23.7612 17.4133C23.8845 17.1004 23.9746 16.8444 24.0314 16.6453C24.0883 16.4462 24.15 16.2044 24.2163 15.92C24.2827 15.6356 24.3301 15.3653 24.3586 15.1093C24.387 14.8533 24.4012 14.5926 24.4012 14.3271C24.4012 14.0237 24.5956 13.4833 24.9843 12.7058C25.3731 11.9283 25.6812 11.4542 25.9088 11.2836C26.2122 11.1129 26.6246 11.0513 27.1461 11.0987C27.6676 11.1461 28.0137 11.2646 28.1843 11.4542C28.4119 11.7387 28.4119 12.8385 28.1843 14.7538C28.0137 16.0053 27.9378 16.8113 27.9568 17.1716C27.9757 17.5508 28.08 17.8542 28.2697 18.0818C28.4972 18.2714 28.6963 18.3615 28.867 18.352C29.0377 18.3425 29.36 18.1956 29.8341 17.9111C30.5357 17.5129 31.043 17.3233 31.3559 17.3422C31.6688 17.3612 31.958 17.5793 32.2234 17.9964C32.432 18.2999 32.5269 18.5748 32.5079 18.8213C32.4889 19.0679 32.3467 19.5419 32.0812 20.2436C31.702 21.2486 31.3606 22.3959 31.0572 23.6853C30.8297 24.7093 30.7586 25.4679 30.8439 25.9609C30.9292 26.4539 31.2374 27.0323 31.7683 27.696C31.9959 28.0184 32.176 28.1985 32.3088 28.2364C32.3657 28.2554 32.4652 28.2412 32.6074 28.1938C32.7497 28.1464 32.9014 28.0895 33.0626 28.0231C33.2237 27.9567 33.3328 27.9141 33.3897 27.8951C33.9775 27.7434 34.3663 27.6201 34.5559 27.5253C36.016 26.7668 37.1728 26.0557 38.0261 25.392ZM53.7294 24.5387C54.0139 24.6904 54.1561 25.0222 54.1561 25.5342C54.1751 26.1221 53.8432 26.672 53.1606 27.184C52.914 27.3547 52.6296 27.5253 52.3072 27.696C52.2503 27.715 52.184 27.7529 52.1081 27.8098C51.8426 27.9615 51.6151 28.0468 51.4254 28.0658C50.8566 28.1037 50.3066 27.8761 49.7757 27.3831C49.6429 27.2693 49.5007 27.0702 49.349 26.7858L49.2637 26.6436C49.093 26.3591 48.9318 26.179 48.7801 26.1031C48.6284 26.0273 48.4388 26.0462 48.2112 26.16C47.9268 26.3117 47.6044 26.7763 47.2441 27.5538C47.0734 27.952 46.9312 28.227 46.8174 28.3787C46.4572 28.9096 46.1443 29.213 45.8788 29.2889C45.5374 29.4596 45.0729 29.725 44.485 30.0853C43.7644 30.5215 43.0817 30.7585 42.437 30.7964C41.6974 30.8533 41.1475 30.9292 40.7872 31.024C40.6924 31.043 40.5976 31.0524 40.5028 31.0524C40.2942 31.0524 40.114 31.0145 39.9623 30.9387C39.7348 30.8439 39.4029 30.5879 38.9668 30.1707C38.4927 29.7345 38.1703 29.3505 37.9997 29.0187C37.829 28.6868 37.6583 28.1037 37.4877 27.2693C37.2032 25.904 37.1369 24.8089 37.2886 23.984C37.4403 23.1591 37.8574 22.1967 38.5401 21.0969C39.4124 19.6936 40.2373 18.6791 41.0148 18.0533C41.7923 17.4276 42.7499 16.9819 43.8877 16.7164C44.4376 16.6027 44.9212 16.4036 45.3383 16.1191C46.002 15.683 46.5899 15.5218 47.1019 15.6356C47.5949 15.7304 48.1638 16.1191 48.8086 16.8018C49.1499 17.181 49.3964 17.4844 49.5481 17.712C49.6998 17.9396 49.8041 18.1576 49.861 18.3662C49.9179 18.5748 49.9463 18.8782 49.9463 19.2764C49.9463 20.9641 50.0032 22.2726 50.117 23.2018C50.1739 23.7517 50.3019 24.1736 50.501 24.4676C50.7001 24.7615 51.0462 25.117 51.5392 25.5342L51.6246 25.4773C51.9659 25.2498 52.2124 25.0696 52.3641 24.9369C52.933 24.5007 53.3881 24.368 53.7294 24.5387ZM47.1588 19.6462C47.1588 18.9067 47.0829 18.499 46.9312 18.4231C46.8933 18.461 46.8554 18.5084 46.8174 18.5653C46.7226 18.736 46.7321 19.1247 46.8459 19.7316C46.9217 20.1677 46.9976 20.4427 47.0734 20.5564C47.1303 20.4047 47.1588 20.1013 47.1588 19.6462ZM46.3339 24.0267C46.4097 23.5905 46.4003 23.2776 46.3054 23.088C46.2296 22.8984 45.9926 22.6044 45.5943 22.2062C44.9686 21.5994 44.6557 21.0969 44.6557 20.6987C44.6557 20.4332 44.5703 20.1203 44.3997 19.76C44.229 19.3997 44.0583 19.1627 43.8877 19.0489C43.7549 18.9541 43.6412 18.9067 43.5463 18.9067C43.4705 18.9067 43.4041 18.9256 43.3472 18.9636C43.1576 19.0584 42.7689 19.4092 42.181 20.016C41.669 20.528 41.1902 21.1822 40.7446 21.9787C40.2989 22.7751 39.9718 23.5241 39.7632 24.2258C39.5546 24.8895 39.5167 25.373 39.6494 25.6764C39.8012 25.9609 39.8865 26.4444 39.9054 27.1271C39.9623 27.6391 40.0382 28.0184 40.133 28.2649C40.2278 28.4735 40.37 28.6157 40.5597 28.6916C40.7683 28.7864 41.1096 28.8338 41.5837 28.8338C41.8112 28.8338 42.0009 28.8243 42.1526 28.8053C42.3043 28.8053 42.4465 28.7864 42.5792 28.7484C42.712 28.7105 42.8352 28.6631 42.949 28.6062C43.0817 28.5304 43.2145 28.445 43.3472 28.3502C43.48 28.2554 43.6412 28.1321 43.8308 27.9804C44.5514 27.4116 44.9591 26.9564 45.0539 26.6151C45.1677 26.2548 45.3952 25.8756 45.7366 25.4773C46.04 25.155 46.2391 24.6714 46.3339 24.0267ZM59.0754 7.35822C58.791 7.35822 58.3264 7.1117 57.6817 6.61866C57.0369 6.12563 56.7146 5.76533 56.7146 5.53778C56.7146 5.36711 57.1412 5.28178 57.9946 5.28178C58.772 5.28178 59.3789 5.45718 59.815 5.808C60.2512 6.15881 60.3175 6.53333 60.0141 6.93155C59.7297 7.216 59.4168 7.35822 59.0754 7.35822ZM59.4737 26.3307C59.8909 25.9893 60.2559 25.8519 60.5688 25.9182C60.8817 25.9846 61.0476 26.2833 61.0666 26.8142C61.0666 26.9849 61.0239 27.1556 60.9386 27.3262C60.8532 27.4969 60.7632 27.6439 60.6683 27.7671C60.5735 27.8904 60.436 28.0279 60.2559 28.1796C60.0757 28.3313 59.9335 28.445 59.8292 28.5209C59.7249 28.5967 59.5637 28.7105 59.3457 28.8622C59.1276 29.0139 58.9901 29.0993 58.9332 29.1182C58.4781 29.4406 58.0135 29.6966 57.5394 29.8862C57.4826 29.9052 57.2313 30.0379 56.7857 30.2844C56.34 30.531 55.9466 30.7396 55.6052 30.9102C55.3018 31.2136 55.0648 31.4601 54.8941 31.6498C54.1925 32.3893 53.4055 33.1668 52.5332 33.9822C51.642 34.7976 51.0257 35.6794 50.6843 36.6276C50.2292 37.8222 49.8689 38.6519 49.6034 39.1164C49.338 39.581 48.8923 40.1073 48.2666 40.6951C47.7735 41.2071 47.38 41.5247 47.0861 41.648C46.7922 41.7713 46.3039 41.8329 45.6212 41.8329C44.6541 41.8329 43.834 41.6006 43.1608 41.136C42.4876 40.6714 42.151 40.0883 42.151 39.3867C42.151 39.0453 42.26 38.7087 42.4781 38.3769C42.6962 38.045 43.1086 37.5757 43.7154 36.9689C44.1137 36.6086 44.6826 36.0776 45.4221 35.376C47.4701 33.4039 48.807 32.0954 49.4328 31.4507C50.0586 30.8059 50.5042 30.2939 50.7697 29.9147C51.0162 29.5354 51.2153 29.0329 51.367 28.4071C51.367 28.3313 51.3717 28.2791 51.3812 28.2507C51.3907 28.2222 51.4049 28.1701 51.4239 28.0942C51.4429 28.0184 51.4523 27.952 51.4523 27.8951C51.623 27.2314 51.898 26.2548 52.2772 24.9653C52.6565 23.6759 52.9314 22.7087 53.1021 22.064C53.14 21.8554 53.2254 21.3576 53.3581 20.5707C53.4909 19.7837 53.6426 19.0963 53.8132 18.5084C53.9839 17.9206 54.202 17.4844 54.4674 17.2C54.7898 16.8587 54.951 16.5173 54.951 16.176C54.951 15.8916 55.0363 15.683 55.207 15.5502C55.3966 15.4364 55.7569 14.8107 56.2879 13.6729C56.8568 12.5541 57.3783 11.7671 57.8523 11.312C58.3643 10.8379 58.9143 10.6293 59.5021 10.6862C59.7486 10.7241 59.924 10.7573 60.0283 10.7858C60.1326 10.8142 60.218 10.8758 60.2843 10.9707C60.3507 11.0655 60.3934 11.1793 60.4123 11.312C60.4313 11.4447 60.4218 11.6913 60.3839 12.0516C60.2701 13.3979 59.7392 15.171 58.791 17.3707C58.7152 17.5413 58.3359 18.2572 57.6532 19.5182C56.9706 20.7793 56.5818 21.7321 56.487 22.3769C56.4301 22.6613 56.1694 23.344 55.7048 24.4249C55.2402 25.5058 54.823 26.5108 54.4532 27.44C54.0834 28.3692 53.9649 28.8907 54.0977 29.0044C54.3442 29.232 55.1549 28.9618 56.5297 28.1938C57.9045 27.4258 58.8858 26.8047 59.4737 26.3307ZM45.6212 39.3867C45.9815 39.4436 46.5409 38.9079 47.2994 37.7796C48.058 36.6513 48.3424 35.9923 48.1528 35.8027C47.9252 35.5941 47.3184 36.0302 46.3323 37.1111C45.2325 38.2868 44.8248 38.9884 45.1092 39.216C45.204 39.2919 45.3747 39.3487 45.6212 39.3867ZM72.605 26.8142C73.0222 26.4729 73.3872 26.3354 73.7001 26.4018C74.013 26.4681 74.1694 26.7668 74.1694 27.2978C74.1884 27.4684 74.1552 27.6391 74.0699 27.8098C73.9846 27.9804 73.8945 28.1274 73.7997 28.2507C73.7049 28.3739 73.5674 28.5114 73.3872 28.6631C73.2071 28.8148 73.0601 28.9286 72.9463 29.0044C72.8326 29.0803 72.6666 29.1893 72.4486 29.3316C72.2305 29.4738 72.1025 29.5639 72.0646 29.6018C71.6094 29.9052 71.1449 30.1612 70.6708 30.3698C70.6329 30.3887 70.5807 30.4124 70.5143 30.4409C70.448 30.4693 70.3769 30.4978 70.301 30.5262C70.2252 30.5547 70.1493 30.5831 70.0734 30.6116C69.9976 30.64 69.936 30.6637 69.8886 30.6827L69.8174 30.7111C68.6607 31.1852 67.4186 31.4601 66.0912 31.536C64.7259 31.6119 63.7303 31.4886 63.1046 31.1662C63.0287 31.1283 62.7253 30.9956 62.1943 30.768C61.6634 30.5404 61.2841 30.3413 61.0566 30.1707C60.6204 29.8862 60.2032 29.2699 59.805 28.3218C59.0654 26.6151 58.6957 25.1076 58.6957 23.7991C58.6957 23.0027 58.8379 21.9597 59.1223 20.6702C59.1413 20.5944 59.1745 20.4332 59.2219 20.1867C59.2693 19.9401 59.312 19.7553 59.3499 19.632C59.3878 19.5087 59.4352 19.3381 59.4921 19.12C59.549 18.9019 59.6059 18.717 59.6628 18.5653C59.7197 18.4136 59.786 18.2572 59.8619 18.096C59.9377 17.9348 60.0136 17.7879 60.0894 17.6551C60.4877 17.1052 60.81 16.707 61.0566 16.4604C62.0806 15.3985 63.3795 14.9244 64.9534 15.0382C66.5843 15.171 67.466 15.7114 67.5988 16.6596C67.7126 17.3991 67.6699 18.1624 67.4708 18.9493C67.2717 19.7363 67.0252 20.3858 66.7312 20.8978C66.4373 21.4098 66.0296 22.0735 65.5081 22.8889C64.9866 23.7043 64.6121 24.3301 64.3846 24.7662C63.5502 26.3401 63.133 27.2788 63.133 27.5822C63.133 27.8287 63.37 28.1796 63.8441 28.6347C64.1475 28.9191 64.4177 29.0898 64.6548 29.1467C64.8918 29.2036 65.3232 29.1751 65.949 29.0613C66.9351 28.9286 68.0065 28.6916 69.1632 28.3502C69.5994 28.1985 70.2346 27.9425 71.069 27.5822C71.9034 27.2219 72.4154 26.9659 72.605 26.8142ZM61.5686 24.7947C61.7392 24.7947 62.2133 24.0551 62.9908 22.576C63.7493 21.0969 64.1286 20.2056 64.1286 19.9022C64.1286 19.5419 63.9342 19.3096 63.5454 19.2053C63.1567 19.101 62.8486 19.1911 62.621 19.4756C62.4314 19.7031 62.2417 20.0444 62.0521 20.4996C61.8625 20.9547 61.7108 21.4193 61.597 21.8933C61.5022 22.3674 61.4169 22.8225 61.341 23.2587C61.2652 23.6948 61.2462 24.0599 61.2841 24.3538C61.322 24.6477 61.4169 24.7947 61.5686 24.7947ZM86.9466 26.5013C87.3637 26.16 87.724 26.0178 88.0275 26.0747C88.3309 26.1316 88.492 26.435 88.511 26.9849C88.511 27.1176 88.4873 27.2551 88.4399 27.3973C88.3925 27.5396 88.3166 27.677 88.2123 27.8098C88.108 27.9425 88.0085 28.061 87.9137 28.1653C87.8189 28.2696 87.6909 28.3834 87.5297 28.5067C87.3685 28.6299 87.2357 28.7247 87.1315 28.7911C87.0272 28.8575 86.8897 28.9476 86.719 29.0613C86.5483 29.1751 86.4346 29.251 86.3777 29.2889C85.9226 29.5923 85.458 29.8483 84.9839 30.0569C84.6805 30.1896 84.1685 30.3745 83.4479 30.6116C82.7273 30.8486 81.8076 31.1141 80.6888 31.408C79.57 31.7019 78.4796 31.8157 77.4177 31.7493C76.3557 31.683 75.5593 31.3843 75.0283 30.8533C74.8197 30.6447 74.5827 30.3413 74.3172 29.9431C74.0517 29.5449 73.8195 29.1561 73.6203 28.7769C73.4212 28.3976 73.2743 28.0847 73.1795 27.8382C72.9329 27.1745 72.8192 26.2548 72.8381 25.0791C73.0088 21.4951 74.5448 18.4231 77.4461 15.8631C78.1288 15.2942 78.6313 14.9481 78.9537 14.8249C79.276 14.7016 79.8829 14.64 80.7741 14.64C82.4049 14.64 83.6517 15.0003 84.5146 15.7209C85.3774 16.4415 85.7045 17.3896 85.4959 18.5653C85.3632 19.1532 85.2352 19.5182 85.1119 19.6604C84.9886 19.8027 84.7089 19.9022 84.2728 19.9591C83.6849 20.016 83.1303 19.8975 82.6088 19.6036C82.0873 19.3096 81.8835 18.992 81.9972 18.6507C82.111 18.3662 82.0494 18.077 81.8123 17.7831C81.5753 17.4892 81.2861 17.3422 80.9448 17.3422C80.319 17.3422 79.3661 18.0012 78.0861 19.3191C76.8061 20.637 76.1661 21.6279 76.1661 22.2916C76.1661 22.5381 76.0334 22.8984 75.7679 23.3724C75.4835 23.7896 75.3507 24.5102 75.3697 25.5342C75.4076 26.5393 75.5688 27.2504 75.8532 27.6676C76.3083 28.3502 77.0716 28.8196 78.143 29.0756C79.2144 29.3316 80.1957 29.3742 81.087 29.2036C81.5611 29.1277 82.0731 28.976 82.623 28.7484C83.628 28.3502 84.5477 27.8287 85.3821 27.184C86.0269 26.7099 86.4725 26.5298 86.719 26.6436C86.738 26.6436 86.7712 26.6246 86.8186 26.5867C86.866 26.5487 86.9086 26.5203 86.9466 26.5013ZM101.193 26.5582C101.629 26.2548 101.999 26.1553 102.302 26.2596C102.606 26.3639 102.738 26.6815 102.701 27.2124C102.682 27.3452 102.639 27.4827 102.573 27.6249C102.506 27.7671 102.416 27.8951 102.302 28.0089C102.189 28.1227 102.08 28.227 101.975 28.3218C101.871 28.4166 101.733 28.5161 101.563 28.6204C101.392 28.7247 101.25 28.8053 101.136 28.8622C101.022 28.9191 100.875 28.995 100.695 29.0898C100.515 29.1846 100.397 29.251 100.34 29.2889C99.8656 29.5354 99.3726 29.7345 98.8606 29.8862C98.8416 29.9052 98.6093 30.0521 98.1637 30.3271C97.718 30.6021 97.2108 30.9055 96.6419 31.2373C96.073 31.5692 95.6084 31.792 95.2481 31.9058C94.7551 32.0764 94.2431 32.2092 93.7121 32.304C93.1811 32.3988 92.6217 32.4604 92.0339 32.4889C91.446 32.5173 90.8819 32.4557 90.3414 32.304C89.801 32.1523 89.3506 31.9247 88.9903 31.6213C88.5542 31.2231 88.1986 30.6779 87.9237 29.9858C87.6487 29.2936 87.4686 28.5446 87.3832 27.7387C87.2979 26.9327 87.2552 26.179 87.2552 25.4773C87.2552 24.7757 87.2837 24.1025 87.3406 23.4578C87.3595 23.363 87.4686 22.5523 87.6677 21.0258C87.8668 19.4993 88.0564 18.0012 88.2366 16.5316L88.5068 14.3271C88.2792 14.1944 87.8526 14.0996 87.2268 14.0427C86.8475 14.0237 86.4588 14.0237 86.0606 14.0427C85.1314 14.0427 84.4771 14.0142 84.0979 13.9573C84.022 13.9384 83.913 13.9289 83.7708 13.9289C83.6286 13.9289 83.4863 13.9289 83.3441 13.9289C83.2019 13.9289 83.0597 13.9289 82.9174 13.9289C82.7752 13.9289 82.6614 13.9147 82.5761 13.8862C82.4908 13.8578 82.4386 13.8151 82.4197 13.7582C82.3817 13.4548 82.505 13.2367 82.7894 13.104C82.8084 13.085 82.9364 13.0044 83.1734 12.8622C83.4105 12.72 83.657 12.5825 83.913 12.4498C84.169 12.317 84.5151 12.1985 84.9512 12.0942C85.3874 11.9899 85.833 11.9473 86.2881 11.9662C87.7103 12.099 88.5969 12.1416 88.9477 12.0942C89.2985 12.0468 89.6446 11.843 89.9859 11.4827C90.4979 11.0086 91.1806 9.76652 92.0339 7.75644C92.0718 7.68059 92.1287 7.56681 92.2046 7.41511C92.5269 6.65659 92.7924 6.05926 93.001 5.62311C93.2096 5.18696 93.5035 4.63229 93.8828 3.95911C94.262 3.28592 94.6792 2.72177 95.1343 2.26666C95.5894 1.81155 96.0635 1.46074 96.5566 1.21422C98.1494 0.4557 98.9459 0.503107 98.9459 1.35644C98.9459 1.84948 98.5761 2.95881 97.8366 4.68444C97.628 5.15851 97.4763 5.52829 97.3814 5.79378C97.2677 6.13511 97.1729 6.54281 97.097 7.01689C97.0212 7.49096 96.841 7.96503 96.5566 8.43911C96.1014 9.23555 95.7222 9.90874 95.4188 10.4587C95.0585 11.1034 94.9257 11.4827 95.0206 11.5964C95.1154 11.7481 96.073 11.9188 97.8934 12.1084C99.164 12.2412 99.9367 12.355 100.212 12.4498C100.487 12.5446 100.605 12.7247 100.567 12.9902C100.529 13.3505 100.321 13.5022 99.9414 13.4453C99.7897 13.4264 99.4863 13.4169 99.0312 13.4169C98.5761 13.4359 98.0641 13.4643 97.4952 13.5022C96.9263 13.5401 96.3385 13.597 95.7317 13.6729C95.1438 13.7487 94.6508 13.8056 94.2526 13.8436C94.044 13.8815 93.769 14.4883 93.4277 15.664C93.0863 16.8397 92.7118 18.2667 92.3041 19.9449C91.8964 21.6231 91.5977 22.7467 91.4081 23.3156C90.441 26.2169 90.5643 28.208 91.7779 29.2889C92.3278 29.7819 92.8398 30.019 93.3139 30C93.5983 30 93.9112 29.8957 94.2526 29.6871C94.3094 29.6113 94.5038 29.4975 94.8357 29.3458C95.1675 29.1941 95.5089 29.0566 95.8597 28.9333C96.2105 28.8101 96.5708 28.6821 96.9406 28.5493C97.3103 28.4166 97.5047 28.3502 97.5237 28.3502C99.0407 27.7434 100.264 27.1461 101.193 26.5582ZM139.229 25.1076C139.647 24.7662 140.007 24.6287 140.31 24.6951C140.614 24.7615 140.775 25.0601 140.794 25.5911C140.794 25.7618 140.756 25.9324 140.68 26.1031C140.604 26.2738 140.519 26.4207 140.424 26.544C140.329 26.6673 140.187 26.8047 139.997 26.9564C139.808 27.1081 139.661 27.2219 139.557 27.2978C139.452 27.3736 139.291 27.4874 139.073 27.6391C138.855 27.7908 138.717 27.8761 138.661 27.8951C138.205 28.2175 137.741 28.4735 137.267 28.6631C137.191 28.701 137.011 28.7959 136.726 28.9476C136.442 29.2699 135.939 29.5354 135.219 29.744C134.574 30.0284 133.493 30.1327 131.976 30.0569C130.364 29.9621 129.113 29.4406 128.221 28.4924C127.728 27.9804 127.359 27.7244 127.112 27.7244C126.885 27.7244 125.709 28.8717 123.585 31.1662C121.404 33.4418 120.191 34.5796 119.944 34.5796C119.792 34.5796 119.57 34.461 119.276 34.224C118.982 33.987 118.712 33.7262 118.465 33.4418C118.218 33.1573 118.095 32.9393 118.095 32.7876C118.095 32.579 119.261 31.2895 121.594 28.9191C123.926 26.5298 125.178 25.1739 125.349 24.8516C125.538 24.4913 125.543 23.7707 125.363 22.6898C125.183 21.6089 124.851 20.8599 124.367 20.4427C123.884 20.0255 123.286 19.9591 122.575 20.2436C121.864 20.528 121.181 20.8741 120.527 21.2818C119.873 21.6895 119.133 22.32 118.309 23.1733C117.484 24.0267 116.882 24.6619 116.502 25.0791C116.123 25.4963 115.696 25.9988 115.222 26.5867H115.194C114.701 27.1745 114.265 27.4021 113.885 27.2693C113.734 27.2124 113.554 27.0607 113.345 26.8142C113.155 26.6246 113.051 26.4634 113.032 26.3307C113.013 26.1221 113.136 25.8661 113.402 25.5627C113.592 25.3541 113.928 24.9606 114.412 24.3822C114.895 23.8039 115.256 23.3819 115.493 23.1164C115.73 22.851 116.085 22.4622 116.559 21.9502C117.033 21.4382 117.422 21.0495 117.725 20.784C118.029 20.5185 118.418 20.1772 118.892 19.76C119.366 19.3428 119.802 19.0204 120.2 18.7929C120.598 18.5653 121.049 18.3236 121.551 18.0676C122.054 17.8116 122.561 17.6124 123.073 17.4702C123.585 17.328 124.116 17.219 124.666 17.1431C125.405 17.0862 125.922 17.1004 126.216 17.1858C126.51 17.2711 126.856 17.4655 127.254 17.7689C127.842 18.2809 128.231 18.8972 128.421 19.6178C128.553 20.3384 128.79 20.7556 129.132 20.8693C129.113 20.8504 129.497 20.4948 130.284 19.8027C131.071 19.1105 131.905 18.3994 132.787 17.6693C133.669 16.9393 134.195 16.5268 134.365 16.432C134.441 16.3941 134.541 16.3372 134.664 16.2613C134.787 16.1855 134.892 16.1239 134.977 16.0764C135.062 16.029 135.162 15.9816 135.276 15.9342C135.389 15.8868 135.494 15.8631 135.589 15.8631C135.854 15.8631 136.176 16.029 136.556 16.3609C136.935 16.6927 137.125 16.963 137.125 17.1716C137.125 17.456 136.707 18.0486 135.873 18.9493C135.039 19.8501 134.498 20.3004 134.252 20.3004C134.1 20.3004 133.773 20.5138 133.27 20.9404C132.768 21.3671 132.251 21.8554 131.72 22.4053L129.615 24.5387L129.957 25.6764C130.165 26.435 130.62 27.0228 131.322 27.44C131.815 27.7434 132.185 27.9093 132.431 27.9378C132.678 27.9662 133.114 27.8951 133.74 27.7244C133.834 27.7055 134.034 27.6439 134.337 27.5396C134.64 27.4353 134.93 27.3452 135.205 27.2693C135.48 27.1935 135.721 27.1556 135.93 27.1556C137.314 26.435 138.414 25.7523 139.229 25.1076Z" fill="black"/>
</svg>
