<svg width="48" height="15" viewBox="0 0 48 15" fill="none" xmlns="http://www.w3.org/2000/svg">
<path d="M4.7548 3.975C5.52481 3.975 6.21481 4.145 6.82481 4.485C7.43481 4.825 7.90981 5.3 8.2498 5.91C8.59981 6.52 8.77481 7.225 8.77481 8.025C8.77481 8.825 8.59981 9.535 8.2498 10.155C7.90981 10.765 7.43481 11.24 6.82481 11.58C6.21481 11.92 5.52481 12.09 4.7548 12.09C4.18481 12.09 3.65981 11.98 3.1798 11.76C2.7098 11.54 2.3098 11.22 1.9798 10.8V14.91H0.539805V4.05H1.9198V5.31C2.2398 4.87 2.6448 4.54 3.1348 4.32C3.6248 4.09 4.1648 3.975 4.7548 3.975ZM4.63481 10.83C5.14481 10.83 5.5998 10.715 5.9998 10.485C6.4098 10.245 6.72981 9.915 6.95981 9.495C7.19981 9.065 7.31981 8.575 7.31981 8.025C7.31981 7.475 7.19981 6.99 6.95981 6.57C6.72981 6.14 6.4098 5.81 5.9998 5.58C5.5998 5.35 5.14481 5.235 4.63481 5.235C4.1348 5.235 3.6798 5.355 3.2698 5.595C2.8698 5.825 2.5498 6.15 2.3098 6.57C2.0798 6.99 1.9648 7.475 1.9648 8.025C1.9648 8.575 2.0798 9.065 2.3098 9.495C2.5398 9.915 2.8598 10.245 3.2698 10.485C3.6798 10.715 4.1348 10.83 4.63481 10.83ZM11.9194 5.385C12.1694 4.925 12.5394 4.575 13.0294 4.335C13.5194 4.095 14.1144 3.975 14.8144 3.975V5.37C14.7344 5.36 14.6244 5.355 14.4844 5.355C13.7044 5.355 13.0894 5.59 12.6394 6.06C12.1994 6.52 11.9794 7.18 11.9794 8.04V12H10.5394V4.05H11.9194V5.385ZM19.696 12.09C18.906 12.09 18.196 11.915 17.566 11.565C16.936 11.215 16.441 10.735 16.081 10.125C15.731 9.505 15.556 8.805 15.556 8.025C15.556 7.245 15.731 6.55 16.081 5.94C16.441 5.32 16.936 4.84 17.566 4.5C18.196 4.15 18.906 3.975 19.696 3.975C20.486 3.975 21.191 4.15 21.811 4.5C22.441 4.84 22.931 5.32 23.281 5.94C23.641 6.55 23.821 7.245 23.821 8.025C23.821 8.805 23.641 9.505 23.281 10.125C22.931 10.735 22.441 11.215 21.811 11.565C21.191 11.915 20.486 12.09 19.696 12.09ZM19.696 10.83C20.206 10.83 20.661 10.715 21.061 10.485C21.471 10.245 21.791 9.915 22.021 9.495C22.251 9.065 22.366 8.575 22.366 8.025C22.366 7.475 22.251 6.99 22.021 6.57C21.791 6.14 21.471 5.81 21.061 5.58C20.661 5.35 20.206 5.235 19.696 5.235C19.186 5.235 18.726 5.35 18.316 5.58C17.916 5.81 17.596 6.14 17.356 6.57C17.126 6.99 17.011 7.475 17.011 8.025C17.011 8.575 17.126 9.065 17.356 9.495C17.596 9.915 17.916 10.245 18.316 10.485C18.726 10.715 19.186 10.83 19.696 10.83ZM28.4975 1.965C27.6375 1.965 27.2075 2.43 27.2075 3.36V4.05H29.5175V5.235H27.2375V12H25.7975V5.235H24.4475V4.05H25.7975V3.345C25.7975 2.555 26.0275 1.93 26.4875 1.47C26.9475 1.01 27.5925 0.78 28.4225 0.78C28.7425 0.78 29.0425 0.82 29.3225 0.9C29.6025 0.979999 29.8425 1.095 30.0425 1.245L29.6075 2.34C29.2775 2.09 28.9075 1.965 28.4975 1.965ZM32.0825 4.05H33.5225V12H32.0825V4.05ZM32.8025 2.52C32.5225 2.52 32.2875 2.43 32.0975 2.25C31.9175 2.07 31.8275 1.85 31.8275 1.59C31.8275 1.33 31.9175 1.11 32.0975 0.929999C32.2875 0.74 32.5225 0.645 32.8025 0.645C33.0825 0.645 33.3125 0.735 33.4925 0.915C33.6825 1.085 33.7775 1.3 33.7775 1.56C33.7775 1.83 33.6825 2.06 33.4925 2.25C33.3125 2.43 33.0825 2.52 32.8025 2.52ZM36.0412 0.869999H37.4812V12H36.0412V0.869999ZM47.1906 8.07C47.1906 8.18 47.1806 8.325 47.1606 8.505H40.7106C40.8006 9.205 41.1056 9.77 41.6256 10.2C42.1556 10.62 42.8106 10.83 43.5906 10.83C44.5406 10.83 45.3056 10.51 45.8856 9.87L46.6806 10.8C46.3206 11.22 45.8706 11.54 45.3306 11.76C44.8006 11.98 44.2056 12.09 43.5456 12.09C42.7056 12.09 41.9606 11.92 41.3106 11.58C40.6606 11.23 40.1556 10.745 39.7956 10.125C39.4456 9.505 39.2706 8.805 39.2706 8.025C39.2706 7.255 39.4406 6.56 39.7806 5.94C40.1306 5.32 40.6056 4.84 41.2056 4.5C41.8156 4.15 42.5006 3.975 43.2606 3.975C44.0206 3.975 44.6956 4.15 45.2856 4.5C45.8856 4.84 46.3506 5.32 46.6806 5.94C47.0206 6.56 47.1906 7.27 47.1906 8.07ZM43.2606 5.19C42.5706 5.19 41.9906 5.4 41.5206 5.82C41.0606 6.24 40.7906 6.79 40.7106 7.47H45.8106C45.7306 6.8 45.4556 6.255 44.9856 5.835C44.5256 5.405 43.9506 5.19 43.2606 5.19Z" fill="#0B0B0B"/>
</svg>
