<svg width="48" height="13" viewBox="0 0 48 13" fill="none" xmlns="http://www.w3.org/2000/svg">
<path d="M4.68367 1.5C6.04367 1.5 7.11367 1.825 7.89367 2.475C8.67367 3.125 9.06367 4.02 9.06367 5.16C9.06367 6.3 8.67367 7.195 7.89367 7.845C7.11367 8.495 6.04367 8.82 4.68367 8.82H2.08867V12H0.588672V1.5H4.68367ZM4.63867 7.515C5.58867 7.515 6.31367 7.315 6.81367 6.915C7.31367 6.505 7.56367 5.92 7.56367 5.16C7.56367 4.4 7.31367 3.82 6.81367 3.42C6.31367 3.01 5.58867 2.805 4.63867 2.805H2.08867V7.515H4.63867ZM12.0805 5.385C12.3305 4.925 12.7005 4.575 13.1905 4.335C13.6805 4.095 14.2755 3.975 14.9755 3.975V5.37C14.8955 5.36 14.7855 5.355 14.6455 5.355C13.8655 5.355 13.2505 5.59 12.8005 6.06C12.3605 6.52 12.1405 7.18 12.1405 8.04V12H10.7005V4.05H12.0805V5.385ZM19.8571 12.09C19.0671 12.09 18.3571 11.915 17.7271 11.565C17.0971 11.215 16.6021 10.735 16.2421 10.125C15.8921 9.505 15.7171 8.805 15.7171 8.025C15.7171 7.245 15.8921 6.55 16.2421 5.94C16.6021 5.32 17.0971 4.84 17.7271 4.5C18.3571 4.15 19.0671 3.975 19.8571 3.975C20.6471 3.975 21.3521 4.15 21.9721 4.5C22.6021 4.84 23.0921 5.32 23.4421 5.94C23.8021 6.55 23.9821 7.245 23.9821 8.025C23.9821 8.805 23.8021 9.505 23.4421 10.125C23.0921 10.735 22.6021 11.215 21.9721 11.565C21.3521 11.915 20.6471 12.09 19.8571 12.09ZM19.8571 10.83C20.3671 10.83 20.8221 10.715 21.2221 10.485C21.6321 10.245 21.9521 9.915 22.1821 9.495C22.4121 9.065 22.5271 8.575 22.5271 8.025C22.5271 7.475 22.4121 6.99 22.1821 6.57C21.9521 6.14 21.6321 5.81 21.2221 5.58C20.8221 5.35 20.3671 5.235 19.8571 5.235C19.3471 5.235 18.8871 5.35 18.4771 5.58C18.0771 5.81 17.7571 6.14 17.5171 6.57C17.2871 6.99 17.1721 7.475 17.1721 8.025C17.1721 8.575 17.2871 9.065 17.5171 9.495C17.7571 9.915 18.0771 10.245 18.4771 10.485C18.8871 10.715 19.3471 10.83 19.8571 10.83ZM28.6586 1.965C27.7986 1.965 27.3686 2.43 27.3686 3.36V4.05H29.6786V5.235H27.3986V12H25.9586V5.235H24.6086V4.05H25.9586V3.345C25.9586 2.555 26.1886 1.93 26.6486 1.47C27.1086 1.01 27.7536 0.78 28.5836 0.78C28.9036 0.78 29.2036 0.82 29.4836 0.9C29.7636 0.979999 30.0036 1.095 30.2036 1.245L29.7686 2.34C29.4386 2.09 29.0686 1.965 28.6586 1.965ZM32.2436 4.05H33.6836V12H32.2436V4.05ZM32.9636 2.52C32.6836 2.52 32.4486 2.43 32.2586 2.25C32.0786 2.07 31.9886 1.85 31.9886 1.59C31.9886 1.33 32.0786 1.11 32.2586 0.929999C32.4486 0.74 32.6836 0.645 32.9636 0.645C33.2436 0.645 33.4736 0.735 33.6536 0.915C33.8436 1.085 33.9386 1.3 33.9386 1.56C33.9386 1.83 33.8436 2.06 33.6536 2.25C33.4736 2.43 33.2436 2.52 32.9636 2.52ZM36.2023 0.869999H37.6423V12H36.2023V0.869999ZM47.3518 8.07C47.3518 8.18 47.3418 8.325 47.3218 8.505H40.8718C40.9618 9.205 41.2668 9.77 41.7868 10.2C42.3168 10.62 42.9718 10.83 43.7518 10.83C44.7018 10.83 45.4668 10.51 46.0468 9.87L46.8418 10.8C46.4818 11.22 46.0318 11.54 45.4918 11.76C44.9618 11.98 44.3668 12.09 43.7068 12.09C42.8668 12.09 42.1218 11.92 41.4718 11.58C40.8218 11.23 40.3168 10.745 39.9568 10.125C39.6068 9.505 39.4318 8.805 39.4318 8.025C39.4318 7.255 39.6018 6.56 39.9418 5.94C40.2918 5.32 40.7668 4.84 41.3668 4.5C41.9768 4.15 42.6618 3.975 43.4218 3.975C44.1818 3.975 44.8568 4.15 45.4468 4.5C46.0468 4.84 46.5118 5.32 46.8418 5.94C47.1818 6.56 47.3518 7.27 47.3518 8.07ZM43.4218 5.19C42.7318 5.19 42.1518 5.4 41.6818 5.82C41.2218 6.24 40.9518 6.79 40.8718 7.47H45.9718C45.8918 6.8 45.6168 6.255 45.1468 5.835C44.6868 5.405 44.1118 5.19 43.4218 5.19Z" fill="#0B0B0B"/>
</svg>
