<svg width="38" height="12" viewBox="0 0 38 12" fill="none" xmlns="http://www.w3.org/2000/svg">
<path d="M4.11186 11.12C3.32186 11.12 2.55686 11 1.81686 10.76C1.08686 10.51 0.511856 10.19 0.0918562 9.8L0.646856 8.63C1.04686 8.99 1.55686 9.285 2.17686 9.515C2.80686 9.735 3.45186 9.845 4.11186 9.845C4.98186 9.845 5.63186 9.7 6.06186 9.41C6.49186 9.11 6.70686 8.715 6.70686 8.225C6.70686 7.865 6.58686 7.575 6.34686 7.355C6.11686 7.125 5.82686 6.95 5.47686 6.83C5.13686 6.71 4.65186 6.575 4.02186 6.425C3.23186 6.235 2.59186 6.045 2.10186 5.855C1.62186 5.665 1.20686 5.375 0.856856 4.985C0.516856 4.585 0.346856 4.05 0.346856 3.38C0.346856 2.82 0.491856 2.315 0.781856 1.865C1.08186 1.415 1.53186 1.055 2.13186 0.784999C2.73186 0.515 3.47686 0.38 4.36686 0.38C4.98686 0.38 5.59686 0.46 6.19686 0.62C6.79686 0.779999 7.31186 1.01 7.74186 1.31L7.24686 2.51C6.80686 2.23 6.33686 2.02 5.83686 1.88C5.33686 1.73 4.84686 1.655 4.36686 1.655C3.51686 1.655 2.87686 1.81 2.44686 2.12C2.02686 2.43 1.81686 2.83 1.81686 3.32C1.81686 3.68 1.93686 3.975 2.17686 4.205C2.41686 4.425 2.71186 4.6 3.06186 4.73C3.42186 4.85 3.90686 4.98 4.51686 5.12C5.30686 5.31 5.94186 5.5 6.42186 5.69C6.90186 5.88 7.31186 6.17 7.65186 6.56C8.00186 6.95 8.17686 7.475 8.17686 8.135C8.17686 8.685 8.02686 9.19 7.72686 9.65C7.42686 10.1 6.97186 10.46 6.36186 10.73C5.75186 10.99 5.00186 11.12 4.11186 11.12ZM14.4033 10.535C14.1933 10.715 13.9333 10.855 13.6233 10.955C13.3133 11.045 12.9933 11.09 12.6633 11.09C11.8633 11.09 11.2433 10.875 10.8033 10.445C10.3633 10.015 10.1433 9.4 10.1433 8.6V4.235H8.79326V3.05H10.1433V1.31H11.5833V3.05H13.8633V4.235H11.5833V8.54C11.5833 8.97 11.6883 9.3 11.8983 9.53C12.1183 9.76 12.4283 9.875 12.8283 9.875C13.2683 9.875 13.6433 9.75 13.9533 9.5L14.4033 10.535ZM19.0605 11.09C18.2705 11.09 17.5605 10.915 16.9305 10.565C16.3005 10.215 15.8055 9.735 15.4455 9.125C15.0955 8.505 14.9205 7.805 14.9205 7.025C14.9205 6.245 15.0955 5.55 15.4455 4.94C15.8055 4.32 16.3005 3.84 16.9305 3.5C17.5605 3.15 18.2705 2.975 19.0605 2.975C19.8505 2.975 20.5555 3.15 21.1755 3.5C21.8055 3.84 22.2955 4.32 22.6455 4.94C23.0055 5.55 23.1855 6.245 23.1855 7.025C23.1855 7.805 23.0055 8.505 22.6455 9.125C22.2955 9.735 21.8055 10.215 21.1755 10.565C20.5555 10.915 19.8505 11.09 19.0605 11.09ZM19.0605 9.83C19.5705 9.83 20.0255 9.715 20.4255 9.485C20.8355 9.245 21.1555 8.915 21.3855 8.495C21.6155 8.065 21.7305 7.575 21.7305 7.025C21.7305 6.475 21.6155 5.99 21.3855 5.57C21.1555 5.14 20.8355 4.81 20.4255 4.58C20.0255 4.35 19.5705 4.235 19.0605 4.235C18.5505 4.235 18.0905 4.35 17.6805 4.58C17.2805 4.81 16.9605 5.14 16.7205 5.57C16.4905 5.99 16.3755 6.475 16.3755 7.025C16.3755 7.575 16.4905 8.065 16.7205 8.495C16.9605 8.915 17.2805 9.245 17.6805 9.485C18.0905 9.715 18.5505 9.83 19.0605 9.83ZM26.332 4.385C26.582 3.925 26.952 3.575 27.442 3.335C27.932 3.095 28.527 2.975 29.227 2.975V4.37C29.147 4.36 29.037 4.355 28.897 4.355C28.117 4.355 27.502 4.59 27.052 5.06C26.612 5.52 26.392 6.18 26.392 7.04V11H24.952V3.05H26.332V4.385ZM37.8886 7.07C37.8886 7.18 37.8786 7.325 37.8586 7.505H31.4086C31.4986 8.205 31.8036 8.77 32.3236 9.2C32.8536 9.62 33.5086 9.83 34.2886 9.83C35.2386 9.83 36.0036 9.51 36.5836 8.87L37.3786 9.8C37.0186 10.22 36.5686 10.54 36.0286 10.76C35.4986 10.98 34.9036 11.09 34.2436 11.09C33.4036 11.09 32.6586 10.92 32.0086 10.58C31.3586 10.23 30.8536 9.745 30.4936 9.125C30.1436 8.505 29.9686 7.805 29.9686 7.025C29.9686 6.255 30.1386 5.56 30.4786 4.94C30.8286 4.32 31.3036 3.84 31.9036 3.5C32.5136 3.15 33.1986 2.975 33.9586 2.975C34.7186 2.975 35.3936 3.15 35.9836 3.5C36.5836 3.84 37.0486 4.32 37.3786 4.94C37.7186 5.56 37.8886 6.27 37.8886 7.07ZM33.9586 4.19C33.2686 4.19 32.6886 4.4 32.2186 4.82C31.7586 5.24 31.4886 5.79 31.4086 6.47H36.5086C36.4286 5.8 36.1536 5.255 35.6836 4.835C35.2236 4.405 34.6486 4.19 33.9586 4.19Z" fill="#0A0A0A"/>
</svg>
